<svg version="1.2" xmlns="http://www.w3.org/2000/svg" viewBox="0 0 420 200" width="420" height="200"><style>.a{fill:#6165d7}.b{fill:#f36f56}</style><path class="a" d="m155.4 25.8q-2.3 0-4.5 0-2.3 0-4.8 0.3l-7.7 52.8h8.6q15.4 0 21.5-14.1 2.2-5.1 3.5-12.8 3.5-26.2-16.6-26.2zm-56.4 123.2l20.5-145.3 38.1-0.9q28.2 0 38.4 12.4 10.6 12.5 6.7 36.8-3.5 26-19.8 38.8-13.8 10.5-37.1 10.5-2.6 0-5.2 0-2.5 0-5.1-0.3l-6.7 48z"/><path class="a" d="m4.7 81.2l11.2-77.5h30.7l-10.9 77.5q-4.2 24.6-2.9 32.6 1.6 8 4.8 10.9 3.5 2.9 9.9 2.9 17.3 0 21.5-26 1.6-8.6 3.5-20.4l10.6-77.5h30.4l-10.9 77.5q-5.1 38.4-18.3 54.4-13.1 16.3-40 16.3-26.2 0-35.5-16.3-9.3-16.4-4.1-54.4z"/><path class="b" d="m196 132.6q-0.8 2-1.8 4.9-1 3-2.3 6.4-1.2 3.2-2.6 6.9-1.2 3.5-2.6 6.9h11.1q-0.2-3.4-0.6-6.9-0.3-3.7-0.5-6.9-0.3-3.4-0.5-6.4-0.2-2.9-0.2-4.9zm-26.4 41.4l21.5-51.5h13l6.8 51.5h-11.4l-1-9h-14.4l-3.6 9zm61.4-43.4l-2.2 15.9 4.8 0.2q6.5 0 7.7-8.1 1.4-8.2-5.9-8.2-1.7 0-4.4 0.2zm6.1 43.4l-5.4-19.5-4-0.1-2.7 19.6h-10.3l7.2-51.5q0 0 13.8-0.3 9.9 0 13.6 3.7 4 3.8 2.9 13-0.9 6.1-4 9.6-3 3.4-6.7 4.5l7.2 21zm47.3 0h-27.8l7.2-51.5h27.8l-1.4 8.9h-16.6l-1.7 11.9h12.7l-1.2 8.3h-12.8l-1.9 13.6h16.9zm38.3 0h-27.9l7.3-51.5h27.7l-1.3 8.8h-16.7l-1.7 11.9h12.7l-1.1 8.3h-12.8l-2 13.6h16.9zm26.8-43.4l-2.2 15.9 4.8 0.2q6.4 0 7.7-8 1.3-8.3-5.9-8.3-1.7 0-4.4 0.2zm6.1 43.4l-5.5-19.5-3.9-0.1-2.7 19.6h-10.4l7.3-51.4q0 0 13.8-0.4 9.9 0 13.6 3.8 4 3.7 2.9 12.9-1 6.1-4 9.6-3.1 3.4-6.7 4.6l7.1 20.9zm45.9-41.3q-0.8 1.9-1.8 4.8-1 3-2.2 6.4-1.3 3.3-2.6 6.9-1.3 3.5-2.7 6.9h11.2q-0.3-3.4-0.6-6.9-0.4-3.6-0.6-6.9-0.2-3.4-0.4-6.4-0.3-2.9-0.3-4.8zm-26.4 41.3l21.6-51.4h13l6.8 51.4h-11.4l-1.1-8.9h-14.4l-3.6 8.9z"/><path class="b" d="m152.5 148.8q-2.4 16.6 0.8 24 3.6 8 14.8 8 5 0 9.2-1.4 4.4-1.4 6.6-2 0.2 3.6 0.2 7.2 0 3.6 0.4 7.2-5 2-11.2 3.2-6.2 1.2-10.6 1.2-18.6 0-26.2-11.6-7.4-11.6-4-35.8 3.4-24.4 14.2-35.8 10.8-11.4 29.4-11.4 6.2 0 11.2 1.2 5 1.2 6.6 2 1.8 0.8 2.6 1l-4.6 14.4q-2.2-0.6-6.2-2-3.8-1.4-8.4-1.4-12 0-17.4 8-5.4 7.8-7.4 24z"/></svg>